<?xml version="1.0" encoding="utf-8"?>
<!-- Generator: Adobe Illustrator 16.0.0, SVG Export Plug-In . SVG Version: 6.00 Build 0)  -->
<!DOCTYPE svg PUBLIC "-//W3C//DTD SVG 1.1//EN" "http://www.w3.org/Graphics/SVG/1.1/DTD/svg11.dtd">
<svg version="1.1" id="Layer_1" xmlns="http://www.w3.org/2000/svg" xmlns:xlink="http://www.w3.org/1999/xlink" x="0px" y="0px"
	 width="2000px" height="1125px" viewBox="0 0 2000 1125" enable-background="new 0 0 2000 1125" xml:space="preserve">
<g display="none">
	<g display="inline" opacity="0.5">
		<defs>
			<rect id="SVGID_1_" x="1742.061" y="802.857" opacity="0.5" width="257.939" height="322.117"/>
		</defs>
		<clipPath id="SVGID_2_">
			<use xlink:href="#SVGID_1_"  overflow="visible"/>
		</clipPath>
		<g clip-path="url(#SVGID_2_)">
			
				<linearGradient id="SVGID_3_" gradientUnits="userSpaceOnUse" x1="1356.7236" y1="1679.0957" x2="1356.7236" y2="1454.3398" gradientTransform="matrix(-0.1349 -0.9909 0.9909 -0.1349 893.1907 2632.3857)">
				<stop  offset="0.0054" style="stop-color:#236A03"/>
				<stop  offset="0.274" style="stop-color:#1B5102"/>
				<stop  offset="0.8405" style="stop-color:#061301"/>
				<stop  offset="1" style="stop-color:#000000"/>
			</linearGradient>
			<path fill="url(#SVGID_3_)" d="M2139.857,1007.957c0,0,11.416,83.861,45.341,111.471c30.874,25.119,91.699,38.176,120.863,36.422
				c29.173-1.756,48.492-14.627,52.62-19.127c10.127-11.072,15.419-23.664,16.305-35.393c0.89-11.74,0.496-28.83,0.496-28.83
				l-131.811,17.945c0,0-25.39,2.91-51.058-15.711C2171.303,1059.277,2149.166,1048.047,2139.857,1007.957z"/>
			<path fill="#EEF10D" d="M1754.931,1038.816c14.177,104.139,110.105,177.08,214.249,162.9c1.542-0.211,3.055-0.496,4.582-0.744
				l0.853,0.004l362.996-49.242c0,0-114.64,6.779-153.41-39.361c-29.67-35.32-34.049-50.105-43.438-106.881
				c-20.613-139.217-118.787-195.104-222.932-180.926C1813.686,838.746,1740.749,934.664,1754.931,1038.816z"/>
			<path fill="#45AF05" d="M1939.625,872.865c-88.521,12.053-150.34,94.771-138.089,184.758
				c11.432,83.961,83.333,144.541,164.827,142.479c-1.107,1.568-1.704,2.412-1.704,2.412l302.102-41.133
				c0,0-90.935-3.91-115.724-51.957c-24.791-48.051-26.445-84.594-30.529-106.984c-0.064-0.334-0.343-0.406-0.57-0.529
				C2102.346,918.438,2024.122,861.361,1939.625,872.865z"/>
			<path fill="#235D03" d="M1849.566,1074.332c9.225,67.74,72.854,119.805,133.467,125.412l-13.854,1.973l15.916-2.168
				c4.356-0.738,9.388-1.277,13.851-1.885c4.157-0.566,8.206-0.707,12.205-1.66l221.122-30.107c0,0-71.217,6.037-96.915-45.777
				c-18.169-36.604-20.782-50.078-24.586-73.432c-0.003-0.014-0.007-0.014-0.008-0.025c-0.219-2.578-0.494-5.168-0.85-7.777
				c-10.604-77.893-77.485-133.104-149.376-123.314C1888.648,925.357,1838.963,996.439,1849.566,1074.332z"/>
			<path fill="#07BEF3" d="M1919.082,1103.523c7.63,56.037,47.383,92.131,93.732,92.252l1.418-0.012l179.243-24.404
				c-50.229,2.688-67.396-22.924-71.803-28.965c-4.563-6.246-14.546-28.479-16.478-38.854c-5.174-27.701-8.769-43.211-9.898-48.176
				c-7.765-34.285-49.074-80.445-99.605-73.566C1945.17,988.678,1910.866,1043.178,1919.082,1103.523z"/>
		</g>
	</g>
	<g display="inline" opacity="0.5">
		<defs>
			<rect id="SVGID_4_" y="0" opacity="0.5" width="552.812" height="617.12"/>
		</defs>
		<clipPath id="SVGID_5_">
			<use xlink:href="#SVGID_4_"  overflow="visible"/>
		</clipPath>
		<g clip-path="url(#SVGID_5_)">
			
				<linearGradient id="SVGID_6_" gradientUnits="userSpaceOnUse" x1="-365.5112" y1="1236.5273" x2="-365.5113" y2="717.5635" gradientTransform="matrix(0.9656 0.2599 -0.2599 0.9656 233.0748 -105.1738)">
				<stop  offset="0.0054" style="stop-color:#236A03"/>
				<stop  offset="0.274" style="stop-color:#1B5102"/>
				<stop  offset="0.8405" style="stop-color:#061301"/>
				<stop  offset="1" style="stop-color:#000000"/>
			</linearGradient>
			<path fill="url(#SVGID_6_)" d="M-117.679,543.494c0,0-188.688-50.775-277.813-3.297
				c-81.096,43.215-163.341,160.969-185.716,224.606c-22.379,63.658-12.283,116.295-6.397,129.109
				c14.496,31.463,36.552,53.996,60.724,66.381c24.184,12.406,60.909,26.869,60.909,26.869l79.811-296.58
				c0,0,16.537-56.639,79.144-94.592C-255.044,564.475-211.326,527.414-117.679,543.494z"/>
			<path fill="#EEF10D" d="M161.252-303.313C-73.066-366.368-314.17-227.52-377.229,6.807c-0.933,3.468-1.676,6.945-2.52,10.418
				l-0.771,1.81l-220.172,816.592c0,0,88.203-250.041,221.107-291.243c101.723-31.52,137.111-27.602,266.344,3.242
				c314.728,80.764,521.553-78.135,584.611-312.458C534.43,0.84,395.599-240.249,161.252-303.313z"/>
			<path fill="#45AF05" d="M349.072,238.313C402.67,39.137,281.979-166.477,79.504-220.963
				C-109.409-271.8-302.703-173.016-371.271,2.259c-2.342-3.762-3.603-5.783-3.603-5.783l-182.918,679.738
				c0,0,89.725-190.024,214.175-199.766c124.449-9.74,203.704,19.451,255.005,30.805c0.766,0.168,1.171-0.365,1.637-0.736
				C106.415,543.806,297.91,428.435,349.072,238.313z"/>
			<path fill="#235D03" d="M0.947-133.704C-151.473-174.72-319.239-85.917-385.435,38.06l8.207-31.253l-9.637,35.814
				c-2.328,9.933-5.683,21.119-8.386,31.164c-2.518,9.355-5.842,18.097-7.39,27.46l-133.887,497.532
				c0,0,50.904-156.963,184.18-165.272c94.167-5.893,125.18,0.611,178.289,13.42c0.028,0.008,0.031,0,0.059,0.008
				c5.685,1.844,11.441,3.574,17.31,5.154C18.568,499.25,195.939,406.345,239.467,244.59
				C282.997,82.834,176.207-86.541,0.947-133.704z"/>
			<path fill="#07BEF3" d="M-123.411-11.897c-126.084-33.93-238.481,18.354-280.238,116.885l-1.241,3.03l-108.529,403.304
				c39.242-109.304,109.118-122.906,125.914-126.88c17.382-4.117,73.631-5.459,97.442-0.287
				c63.587,13.798,99.809,20.028,111.389,22.071c79.914,14.167,215.129-32.42,245.726-146.116
				C97.642,146.433,12.368,24.641-123.411-11.897z"/>
		</g>
	</g>
</g>
<g>
	<g opacity="0.5">
		<defs>
			<rect id="SVGID_7_" y="5.026" opacity="0.5" width="257.939" height="322.117"/>
		</defs>
		<clipPath id="SVGID_8_">
			<use xlink:href="#SVGID_7_"  overflow="visible"/>
		</clipPath>
		<g clip-path="url(#SVGID_8_)">
			
				<linearGradient id="SVGID_9_" gradientUnits="userSpaceOnUse" x1="1357.7129" y1="1679.2305" x2="1357.7129" y2="1454.4746" gradientTransform="matrix(0.1349 0.9909 -0.9909 0.1349 1106.8093 -1503.3857)">
				<stop  offset="0.0054" style="stop-color:#236A03"/>
				<stop  offset="0.274" style="stop-color:#1B5102"/>
				<stop  offset="0.8405" style="stop-color:#061301"/>
				<stop  offset="1" style="stop-color:#000000"/>
			</linearGradient>
			<path fill="url(#SVGID_9_)" d="M-139.857,122.042c0,0-11.416-83.86-45.341-111.47c-30.874-25.119-91.699-38.177-120.863-36.423
				c-29.173,1.756-48.492,14.628-52.62,19.128c-10.127,11.072-15.419,23.663-16.305,35.393c-0.89,11.739-0.496,28.83-0.496,28.83
				l131.811-17.945c0,0,25.39-2.91,51.058,15.71C-171.303,70.723-149.166,81.953-139.857,122.042z"/>
			<path fill="#EEF10D" d="M245.069,91.183C230.893-12.956,134.964-85.897,30.82-71.717c-1.542,0.211-3.055,0.497-4.582,0.745
				l-0.853-0.005L-337.61-21.735c0,0,114.64-6.778,153.41,39.362c29.67,35.319,34.049,50.105,43.438,106.881
				C-120.148,263.725-21.975,319.611,82.17,305.433C186.314,291.253,259.251,195.336,245.069,91.183z"/>
			<path fill="#45AF05" d="M60.375,257.134c88.521-12.052,150.34-94.771,138.089-184.758
				c-11.432-83.96-83.333-144.54-164.827-142.479c1.107-1.568,1.704-2.411,1.704-2.411l-302.102,41.132
				c0,0,90.935,3.91,115.724,51.958c24.791,48.051,26.445,84.593,30.529,106.983c0.064,0.334,0.343,0.406,0.57,0.53
				C-102.346,211.562-24.122,268.638,60.375,257.134z"/>
			<path fill="#235D03" d="M150.434,55.667C141.209-12.073,77.579-64.137,16.967-69.744l13.854-1.974l-15.916,2.168
				c-4.356,0.738-9.388,1.277-13.851,1.885c-4.157,0.567-8.206,0.708-12.205,1.661l-221.122,30.106c0,0,71.217-6.037,96.915,45.777
				c18.169,36.604,20.782,50.078,24.586,73.433c0.003,0.014,0.007,0.014,0.008,0.024c0.219,2.579,0.494,5.169,0.85,7.778
				C-99.311,169.007-32.43,224.218,39.461,214.43S161.037,133.561,150.434,55.667z"/>
			<path fill="#07BEF3" d="M80.918,26.476c-7.63-56.036-47.383-92.131-93.732-92.252l-1.418,0.012L-193.476-41.36
				c50.229-2.688,67.396,22.925,71.803,28.965c4.563,6.247,14.546,28.479,16.478,38.854c5.174,27.702,8.769,43.212,9.898,48.177
				c7.765,34.284,49.074,80.445,99.605,73.565C54.83,141.323,89.134,86.822,80.918,26.476z"/>
		</g>
	</g>
	<g opacity="0.5">
		<defs>
			<rect id="SVGID_10_" x="1447.188" y="507.881" opacity="0.5" width="552.812" height="617.119"/>
		</defs>
		<clipPath id="SVGID_11_">
			<use xlink:href="#SVGID_10_"  overflow="visible"/>
		</clipPath>
		<g clip-path="url(#SVGID_11_)">
			
				<linearGradient id="SVGID_12_" gradientUnits="userSpaceOnUse" x1="-364.4717" y1="1240.3906" x2="-364.4717" y2="721.4277" gradientTransform="matrix(-0.9656 -0.2599 0.2599 -0.9656 1766.9252 1234.1748)">
				<stop  offset="0.0054" style="stop-color:#236A03"/>
				<stop  offset="0.274" style="stop-color:#1B5102"/>
				<stop  offset="0.8405" style="stop-color:#061301"/>
				<stop  offset="1" style="stop-color:#000000"/>
			</linearGradient>
			<path fill="url(#SVGID_12_)" d="M2117.679,581.506c0,0,188.688,50.775,277.813,3.297
				c81.096-43.214,163.342-160.968,185.716-224.605c22.38-63.658,12.283-116.295,6.397-129.109
				c-14.495-31.463-36.552-53.996-60.724-66.381c-24.184-12.406-60.908-26.869-60.908-26.869l-79.812,296.58
				c0,0-16.536,56.639-79.144,94.592C2255.044,560.526,2211.325,597.586,2117.679,581.506z"/>
			<path fill="#EEF10D" d="M1838.748,1428.313c234.318,63.055,475.422-75.793,538.48-310.119c0.933-3.469,1.676-6.945,2.52-10.418
				l0.771-1.811l220.172-816.591c0,0-88.202,250.041-221.107,291.242c-101.723,31.52-137.111,27.602-266.344-3.242
				c-314.728-80.763-521.553,78.135-584.611,312.459C1465.57,1124.16,1604.401,1365.25,1838.748,1428.313z"/>
			<path fill="#45AF05" d="M1650.928,886.688c-53.599,199.176,67.094,404.789,269.567,459.275
				c188.913,50.838,382.207-47.947,450.776-223.223c2.342,3.762,3.603,5.783,3.603,5.783l182.919-679.738
				c0,0-89.725,190.023-214.175,199.765c-124.449,9.74-203.704-19.451-255.006-30.805c-0.766-0.168-1.171,0.365-1.637,0.736
				C1893.585,581.193,1702.09,696.564,1650.928,886.688z"/>
			<path fill="#235D03" d="M1999.053,1258.703c152.42,41.018,320.187-47.785,386.382-171.764l-8.206,31.254l9.637-35.814
				c2.328-9.934,5.684-21.119,8.387-31.164c2.518-9.355,5.842-18.098,7.39-27.461l133.888-497.531
				c0,0-50.904,156.962-184.181,165.271c-94.167,5.893-125.18-0.611-178.289-13.42c-0.028-0.008-0.03,0-0.059-0.008
				c-5.686-1.844-11.441-3.574-17.31-5.154c-175.26-47.162-352.631,45.742-396.159,207.498
				C1717.003,1042.166,1823.793,1211.541,1999.053,1258.703z"/>
			<path fill="#07BEF3" d="M2123.411,1136.898c126.084,33.93,238.48-18.354,280.237-116.885l1.241-3.031l108.529-403.305
				c-39.242,109.305-109.118,122.906-125.914,126.881c-17.382,4.117-73.631,5.459-97.442,0.287
				c-63.587-13.799-99.809-20.029-111.389-22.072c-79.914-14.166-215.13,32.42-245.726,146.117
				C1902.357,978.566,1987.632,1100.359,2123.411,1136.898z"/>
		</g>
	</g>
</g>
<g display="none">
	<g display="inline" opacity="0.5">
		<defs>
			<rect id="SVGID_13_" x="1742.061" opacity="0.5" width="257.939" height="322.117"/>
		</defs>
		<clipPath id="SVGID_14_">
			<use xlink:href="#SVGID_13_"  overflow="visible"/>
		</clipPath>
		<g clip-path="url(#SVGID_14_)">
			
				<linearGradient id="SVGID_15_" gradientUnits="userSpaceOnUse" x1="1357.6875" y1="1679.2275" x2="1357.6875" y2="1454.4707" gradientTransform="matrix(-0.1349 0.9909 0.9909 0.1349 893.1907 -1508.3857)">
				<stop  offset="0.0054" style="stop-color:#236A03"/>
				<stop  offset="0.274" style="stop-color:#1B5102"/>
				<stop  offset="0.8405" style="stop-color:#061301"/>
				<stop  offset="1" style="stop-color:#000000"/>
			</linearGradient>
			<path fill="url(#SVGID_15_)" d="M2139.857,117.017c0,0,11.416-83.86,45.341-111.47c30.874-25.119,91.699-38.177,120.863-36.423
				c29.173,1.756,48.492,14.628,52.62,19.128c10.127,11.072,15.419,23.663,16.305,35.393c0.89,11.739,0.496,28.83,0.496,28.83
				l-131.811-17.945c0,0-25.39-2.91-51.058,15.71C2171.303,65.697,2149.166,76.927,2139.857,117.017z"/>
			<path fill="#EEF10D" d="M1754.931,86.157c14.177-104.139,110.105-177.08,214.249-162.9c1.542,0.211,3.055,0.497,4.582,0.745
				l0.853-0.005l362.996,49.242c0,0-114.64-6.778-153.41,39.362c-29.67,35.319-34.049,50.105-43.438,106.881
				c-20.613,139.217-118.787,195.103-222.932,180.925C1813.686,286.228,1740.749,190.311,1754.931,86.157z"/>
			<path fill="#45AF05" d="M1939.625,252.108c-88.521-12.052-150.34-94.771-138.089-184.758
				c11.432-83.96,83.333-144.54,164.827-142.479c-1.107-1.568-1.704-2.411-1.704-2.411l302.102,41.132
				c0,0-90.935,3.91-115.724,51.958c-24.791,48.051-26.445,84.593-30.529,106.983c-0.064,0.334-0.343,0.406-0.57,0.53
				C2102.346,206.536,2024.122,263.612,1939.625,252.108z"/>
			<path fill="#235D03" d="M1849.566,50.642c9.225-67.74,72.854-119.805,133.467-125.411l-13.854-1.974l15.916,2.168
				c4.356,0.738,9.388,1.277,13.851,1.885c4.157,0.567,8.206,0.708,12.205,1.661l221.122,30.106c0,0-71.217-6.037-96.915,45.777
				c-18.169,36.604-20.782,50.078-24.586,73.433c-0.003,0.014-0.007,0.014-0.008,0.024c-0.219,2.579-0.494,5.169-0.85,7.778
				c-10.604,77.892-77.485,133.103-149.376,123.314S1838.963,128.535,1849.566,50.642z"/>
			<path fill="#07BEF3" d="M1919.082,21.45c7.63-56.036,47.383-92.131,93.732-92.252l1.418,0.012l179.243,24.404
				c-50.229-2.688-67.396,22.925-71.803,28.965c-4.563,6.247-14.546,28.479-16.478,38.854c-5.174,27.702-8.769,43.212-9.898,48.177
				c-7.765,34.284-49.074,80.445-99.605,73.565C1945.17,136.297,1910.866,81.796,1919.082,21.45z"/>
		</g>
	</g>
	<g display="inline" opacity="0.5">
		<defs>
			<rect id="SVGID_16_" y="507.881" opacity="0.5" width="552.812" height="617.119"/>
		</defs>
		<clipPath id="SVGID_17_">
			<use xlink:href="#SVGID_16_"  overflow="visible"/>
		</clipPath>
		<g clip-path="url(#SVGID_17_)">
			
				<linearGradient id="SVGID_18_" gradientUnits="userSpaceOnUse" x1="-365.7705" y1="1235.5605" x2="-365.7705" y2="716.5986" gradientTransform="matrix(0.9656 -0.2599 -0.2599 -0.9656 233.0748 1229.1748)">
				<stop  offset="0.0054" style="stop-color:#236A03"/>
				<stop  offset="0.274" style="stop-color:#1B5102"/>
				<stop  offset="0.8405" style="stop-color:#061301"/>
				<stop  offset="1" style="stop-color:#000000"/>
			</linearGradient>
			<path fill="url(#SVGID_18_)" d="M-117.679,581.506c0,0-188.688,50.775-277.813,3.297
				c-81.096-43.214-163.342-160.968-185.716-224.605c-22.38-63.658-12.283-116.295-6.397-129.109
				c14.495-31.463,36.552-53.996,60.724-66.381c24.184-12.406,60.908-26.869,60.908-26.869l79.812,296.58
				c0,0,16.536,56.639,79.144,94.592C-255.044,560.526-211.325,597.586-117.679,581.506z"/>
			<path fill="#EEF10D" d="M161.252,1428.313c-234.318,63.055-475.422-75.793-538.48-310.119c-0.933-3.469-1.676-6.945-2.52-10.418
				l-0.771-1.811L-600.69,289.374c0,0,88.202,250.041,221.107,291.242c101.723,31.52,137.111,27.602,266.344-3.242
				c314.728-80.763,521.553,78.135,584.611,312.459C534.43,1124.16,395.599,1365.25,161.252,1428.313z"/>
			<path fill="#45AF05" d="M349.072,886.688c53.599,199.176-67.094,404.789-269.567,459.275
				c-188.913,50.838-382.207-47.947-450.776-223.223c-2.342,3.762-3.603,5.783-3.603,5.783l-182.919-679.738
				c0,0,89.725,190.023,214.175,199.765c124.449,9.74,203.704-19.451,255.006-30.805c0.766-0.168,1.171,0.365,1.637,0.736
				C106.415,581.193,297.91,696.564,349.072,886.688z"/>
			<path fill="#235D03" d="M0.947,1258.703c-152.42,41.018-320.187-47.785-386.382-171.764l8.206,31.254l-9.637-35.814
				c-2.328-9.934-5.684-21.119-8.387-31.164c-2.518-9.355-5.842-18.098-7.39-27.461l-133.888-497.531
				c0,0,50.904,156.962,184.181,165.271c94.167,5.893,125.18-0.611,178.289-13.42c0.028-0.008,0.03,0,0.059-0.008
				c5.686-1.844,11.441-3.574,17.31-5.154c175.26-47.162,352.631,45.742,396.159,207.498
				C282.997,1042.166,176.207,1211.541,0.947,1258.703z"/>
			<path fill="#07BEF3" d="M-123.411,1136.898c-126.084,33.93-238.48-18.354-280.237-116.885l-1.241-3.031l-108.529-403.305
				c39.242,109.305,109.118,122.906,125.914,126.881c17.382,4.117,73.631,5.459,97.442,0.287
				c63.587-13.799,99.809-20.029,111.389-22.072c79.914-14.166,215.13,32.42,245.726,146.117
				C97.643,978.566,12.368,1100.359-123.411,1136.898z"/>
		</g>
	</g>
</g>
<g>
	<g>
		<linearGradient id="SVGID_19_" gradientUnits="userSpaceOnUse" x1="1478.7344" y1="717.5049" x2="1478.7344" y2="545.3501">
			<stop  offset="0.0054" style="stop-color:#236A03"/>
			<stop  offset="0.274" style="stop-color:#1B5102"/>
			<stop  offset="0.8405" style="stop-color:#061301"/>
			<stop  offset="1" style="stop-color:#000000"/>
		</linearGradient>
		<path fill="url(#SVGID_19_)" d="M1543.558,545.35c0,0-64.822,0-89.281,22.895c-22.253,20.836-38.449,65.648-40.131,87.963
			c-1.682,22.322,6.09,38.314,9.08,41.911c7.356,8.83,16.365,14.147,25.176,16.03c8.816,1.889,21.828,3.356,21.828,3.356v-101.89
			c0,0,0.415-19.569,17.199-37.127C1501.362,563.912,1512.172,548.274,1543.558,545.35z"/>
		<path fill="#EEF10D" d="M1559.913,250.03c-80.5,0-145.768,65.263-145.768,145.768c0,1.191,0.062,2.37,0.091,3.555l-0.091,0.645
			l-0.137,280.577c0,0,6.701-87.703,45.726-112.359c29.869-18.867,41.543-20.662,85.603-21.922
			c107.785-1.258,160.344-69.99,160.344-150.495C1705.681,315.293,1640.423,250.03,1559.913,250.03z"/>
		<path fill="#45AF05" d="M1666.773,407.349c0-68.425-56.39-123.891-125.949-123.891c-64.9,0-118.307,48.311-125.163,110.37
			c-1.074-1.005-1.652-1.542-1.652-1.542v233.523c0,0,12.362-68.608,51.39-82.455c39.028-13.85,66.934-11.332,84.347-12.117
			c0.26-0.012,0.345-0.218,0.461-0.375C1615.374,526.131,1666.773,472.664,1666.773,407.349z"/>
		<path fill="#235D03" d="M1523.181,318.183c-52.363,0-98.452,42.912-108.971,88.335l-0.064-10.72v12.306
			c0.11,3.381,0,7.254,0,10.703c0,3.214-0.312,6.303,0,9.437v170.925c0,0,2.775-54.672,44.754-68.824
			c29.659-10.002,40.154-10.593,58.272-11.067c0.01,0,0.01-0.004,0.02-0.004c1.979,0.099,3.974,0.157,5.989,0.157
			c60.21,0,109.022-45.05,109.022-100.624C1632.203,363.235,1583.391,318.183,1523.181,318.183z"/>
		<path fill="#07BEF3" d="M1493.844,367.925c-43.316,0-74.815,26.437-79.698,61.604l-0.137,1.075V569.16
			c3.149-38.396,24.361-48.778,29.399-51.5c5.214-2.82,23.117-8.099,31.19-8.494c21.56-1.061,33.701-2.188,37.587-2.529
			c26.821-2.352,66.121-28.935,66.121-67.992C1578.307,399.588,1540.49,367.925,1493.844,367.925z"/>
	</g>
	<g>
		<text transform="matrix(1 0 0 1 1305 807)" font-family="'LateNightLoveNotes'" font-size="66">punyaide.com</text>
		<text transform="matrix(1 0 0 1 1502 805.9854)" font-family="'LateNightLoveNotes'" font-size="68.3548">ide</text>
		<text transform="matrix(1 0 0 1 1502 805.9854)" font-family="'LateNightLoveNotes'" font-size="66">ide</text>
	</g>
</g>
</svg>
