<?xml version="1.0" encoding="utf-8"?>
<!-- Generator: Adobe Illustrator 16.0.0, SVG Export Plug-In . SVG Version: 6.00 Build 0)  -->
<!DOCTYPE svg PUBLIC "-//W3C//DTD SVG 1.1//EN" "http://www.w3.org/Graphics/SVG/1.1/DTD/svg11.dtd">
<svg version="1.1" id="Layer_1" xmlns="http://www.w3.org/2000/svg" xmlns:xlink="http://www.w3.org/1999/xlink" x="0px" y="0px"
	 width="1500px" height="1125px" viewBox="0 0 1500 1125" enable-background="new 0 0 1500 1125" xml:space="preserve">
<rect fill="#0D7840" width="1500" height="1125"/>
<g opacity="0.7">
	<defs>
		<rect id="SVGID_1_" x="947.188" y="507.881" opacity="0.7" width="552.812" height="617.119"/>
	</defs>
	<clipPath id="SVGID_2_">
		<use xlink:href="#SVGID_1_"  overflow="visible"/>
	</clipPath>
	<g clip-path="url(#SVGID_2_)">
		
			<linearGradient id="SVGID_3_" gradientUnits="userSpaceOnUse" x1="-373.0547" y1="1175.4111" x2="-373.0547" y2="656.4482" gradientTransform="matrix(-0.9656 -0.2599 0.2599 -0.9656 1275.5253 1169.1997)">
			<stop  offset="0.0054" style="stop-color:#236A03"/>
			<stop  offset="0.274" style="stop-color:#1B5102"/>
			<stop  offset="0.8405" style="stop-color:#061301"/>
			<stop  offset="1" style="stop-color:#000000"/>
		</linearGradient>
		<path fill="url(#SVGID_3_)" d="M1617.679,581.506c0,0,188.688,50.775,277.813,3.297
			c81.096-43.215,163.342-160.968,185.716-224.605c22.38-63.658,12.283-116.295,6.397-129.109
			c-14.495-31.463-36.552-53.996-60.724-66.381c-24.184-12.406-60.908-26.869-60.908-26.869l-79.812,296.58
			c0,0-16.536,56.638-79.144,94.591C1755.044,560.525,1711.325,597.586,1617.679,581.506z"/>
		<path fill="#EEF10D" d="M1338.748,1428.313c234.318,63.055,475.422-75.793,538.48-310.119c0.933-3.469,1.676-6.945,2.52-10.418
			l0.771-1.811l220.172-816.591c0,0-88.202,250.041-221.107,291.242c-101.723,31.52-137.111,27.602-266.344-3.242
			c-314.728-80.764-521.553,78.135-584.611,312.459C965.57,1124.16,1104.401,1365.25,1338.748,1428.313z"/>
		<path fill="#45AF05" d="M1150.928,886.688c-53.599,199.176,67.094,404.789,269.567,459.275
			c188.913,50.838,382.207-47.947,450.776-223.223c2.342,3.762,3.603,5.783,3.603,5.783l182.919-679.738
			c0,0-89.725,190.023-214.175,199.765c-124.449,9.74-203.704-19.451-255.006-30.805c-0.766-0.168-1.171,0.365-1.637,0.736
			C1393.585,581.193,1202.09,696.564,1150.928,886.688z"/>
		<path fill="#235D03" d="M1499.053,1258.703c152.42,41.018,320.187-47.785,386.382-171.764l-8.206,31.254l9.637-35.814
			c2.328-9.934,5.684-21.119,8.387-31.164c2.518-9.355,5.842-18.098,7.39-27.461l133.888-497.531
			c0,0-50.904,156.963-184.181,165.271c-94.167,5.893-125.18-0.611-178.289-13.42c-0.028-0.008-0.03,0-0.059-0.008
			c-5.686-1.844-11.441-3.574-17.31-5.154c-175.26-47.162-352.631,45.742-396.159,207.498
			C1217.003,1042.166,1323.793,1211.541,1499.053,1258.703z"/>
		<path fill="#07BEF3" d="M1623.411,1136.898c126.084,33.93,238.48-18.354,280.237-116.885l1.241-3.031l108.529-403.305
			c-39.242,109.305-109.118,122.906-125.914,126.881c-17.382,4.117-73.631,5.459-97.442,0.287
			c-63.587-13.799-99.809-20.029-111.389-22.072c-79.914-14.166-215.13,32.42-245.726,146.117
			C1402.357,978.566,1487.632,1100.359,1623.411,1136.898z"/>
	</g>
</g>
</svg>
