<?xml version="1.0" encoding="UTF-8"?>
<!DOCTYPE svg PUBLIC "-//W3C//DTD SVG 1.1//EN" "http://www.w3.org/Graphics/SVG/1.1/DTD/svg11.dtd">
<!-- Creator: CorelDRAW X7 -->
<svg xmlns="http://www.w3.org/2000/svg" xml:space="preserve" width="200px" height="243px" version="1.1" style="shape-rendering:geometricPrecision; text-rendering:geometricPrecision; image-rendering:optimizeQuality; fill-rule:evenodd; clip-rule:evenodd"
viewBox="0 0 200 243"
 xmlns:xlink="http://www.w3.org/1999/xlink">
 <defs>
  <style type="text/css">
   <![CDATA[
    .fil3 {fill:#FEFEFE}
    .fil2 {fill:#003E7E}
    .fil1 {fill:#003E7E}
    .fil0 {fill:#003E7E;fill-rule:nonzero}
   ]]>
  </style>
 </defs>
 <g id="Layer_x0020_1">
  <metadata id="CorelCorpID_0Corel-Layer"/>
  <path class="fil0" d="M0 217c0,1 1,2 2,2 2,0 3,-1 3,-2l0 -9 3 -4 9 14c1,1 1,1 2,1 1,0 3,-1 3,-2 0,-1 0,-1 0,-1l-11 -16 9 -11c0,-1 0,-1 0,-1 0,-2 -1,-3 -2,-3 -1,0 -2,0 -2,1l-11 15 0 -14c0,-1 -1,-2 -3,-2 -1,0 -2,1 -2,2l0 30z"/>
  <path id="1" class="fil0" d="M55 219c5,0 10,-3 10,-10l0 -14c0,-7 -5,-10 -10,-10 -6,0 -11,3 -11,10l0 14c0,7 5,10 11,10zm5 -10c0,4 -2,6 -5,6 -4,0 -6,-2 -6,-6l0 -14c0,-4 2,-6 6,-6 3,0 5,2 5,6l0 14z"/>
  <path id="2" class="fil0" d="M90 185c-1,0 -2,1 -2,2 0,1 1,3 2,3l7 0 0 27c0,1 1,2 2,2 1,0 3,-1 3,-2l0 -27 7 0c1,0 1,-2 1,-3 0,-1 0,-2 -1,-2l-19 0z"/>
  <path id="3" class="fil0" d="M133 219c0,0 1,-1 1,-1l2 -7 11 0 2 7c1,0 1,1 2,1 1,0 3,-1 3,-2 0,0 0,-1 0,-1l-9 -30c0,-1 -2,-1 -3,-1 -2,0 -3,0 -3,1l-9 30c-1,0 -1,1 -1,1 0,1 2,2 4,2zm4 -12l5 -16 4 16 -9 0z"/>
  <path id="4" class="fil0" d="M178 217c0,1 1,2 3,2 1,0 2,-1 2,-2l0 -9 3 -4 9 14c1,1 1,1 2,1 2,0 3,-1 3,-2 0,-1 0,-1 0,-1l-11 -16 9 -11c0,-1 0,-1 0,-1 0,-2 -1,-3 -2,-3 -1,0 -1,0 -2,1l-11 15 0 -14c0,-1 -1,-2 -2,-2 -2,0 -3,1 -3,2l0 30z"/>
  <path class="fil0" d="M30 242c0,1 1,1 1,1 1,0 1,0 1,-1l0 -6 4 0c3,0 5,-2 5,-6l0 0c0,-4 -2,-6 -5,-6l-5 0c0,0 -1,1 -1,1l0 17zm6 -16c2,0 3,1 3,4l0 0c0,3 -1,4 -3,4l-4 0 0 -8 4 0z"/>
  <path id="1" class="fil0" d="M46 243c0,0 0,0 0,0l2 -4 7 0 1 4c0,0 0,0 0,0 1,0 2,0 2,-1 0,0 -1,0 -1,0l-5 -17c0,0 0,-1 -1,-1 0,0 -1,0 -1,1l-5 17c0,0 0,0 0,0 0,1 0,1 1,1zm2 -6l3 -10 3 10 -6 0z"/>
  <path id="2" class="fil0" d="M72 229c0,0 1,1 1,1 1,0 1,0 1,-1 0,-3 -2,-5 -5,-5 -3,0 -6,2 -6,6l0 8c0,4 3,5 6,5 3,0 5,-2 5,-4 0,-1 0,-1 -1,-1 0,0 -1,0 -1,1 0,1 0,3 -3,3 -3,0 -4,-2 -4,-4l0 -8c0,-3 1,-4 4,-4 3,0 3,2 3,3l0 0z"/>
  <path id="3" class="fil0" d="M80 242c0,1 1,1 1,1 1,0 1,0 1,-1l0 -5 2 -3 6 9c0,0 1,0 1,0 0,0 1,0 1,-1 0,0 0,0 0,0l-7 -10 6 -6c0,0 0,-1 0,-1 0,0 -1,-1 -1,-1 0,0 0,1 -1,1l-7 9 0 -9c0,0 0,-1 -1,-1 0,0 -1,1 -1,1l0 17z"/>
  <path id="4" class="fil0" d="M97 243c0,0 1,0 1,0l1 -4 7 0 1 4c0,0 0,0 1,0 0,0 1,0 1,-1 0,0 0,0 0,0l-6 -17c0,0 0,-1 -1,-1 0,0 -1,0 -1,1l-5 17c0,0 0,0 0,0 0,1 0,1 1,1zm2 -6l3 -10 3 10 -6 0z"/>
  <path id="5" class="fil0" d="M123 229c0,1 1,1 1,1 1,0 1,0 1,-1 0,-3 -2,-5 -5,-5 -3,0 -6,2 -6,6l0 8c0,4 3,5 6,5 3,0 5,-1 5,-5l0 -4c0,0 0,-1 -1,-1l-4 0c0,0 -1,1 -1,1 0,0 1,1 1,1l3 0 0 3c0,2 -1,4 -3,4 -2,0 -4,-2 -4,-4l0 -8c0,-3 2,-4 4,-4 2,0 3,1 3,3l0 0z"/>
  <path id="6" class="fil0" d="M132 242c0,1 0,1 1,1 0,0 1,0 1,-1l0 -17c0,0 -1,-1 -1,-1 -1,0 -1,1 -1,1l0 17z"/>
  <path id="7" class="fil0" d="M151 243c0,0 1,0 1,-1l0 -17c0,0 -1,-1 -1,-1 0,0 -1,1 -1,1l0 14 -7 -13c0,-1 0,-2 -1,-2 0,0 -1,1 -1,1l0 17c0,1 1,1 1,1 0,0 1,0 1,-1l0 -14 7 14c0,1 1,1 1,1z"/>
  <path id="8" class="fil0" d="M168 229c0,1 0,1 1,1 0,0 1,0 1,-1 0,-3 -2,-5 -6,-5 -3,0 -5,2 -5,6l0 8c0,4 2,5 5,5 3,0 6,-1 6,-5l0 -4c0,0 0,-1 -1,-1l-4 0c-1,0 -1,1 -1,1 0,0 0,1 1,1l3 0 0 3c0,2 -1,4 -4,4 -2,0 -3,-2 -3,-4l0 -8c0,-3 1,-4 3,-4 3,0 4,1 4,3l0 0z"/>
  <rect class="fil1" y="233" width="22.7767" height="1.26934" rx="9" ry="15"/>
  <rect class="fil1" x="177" y="233" width="22.7767" height="1.26934" rx="9" ry="15"/>
  <g id="_630193948880">
   <path class="fil2" d="M34 68l0 0c1,-1 2,-1 2,0l51 51c1,0 1,1 0,2l0 0c0,1 -1,1 -2,0l-51 -51c-1,-1 -1,-2 0,-2z"/>
   <path class="fil2" d="M34 81l0 0c1,-1 2,-1 2,0l48 47c0,1 0,2 0,2l0 0c-1,1 -2,1 -3,0l-47 -47c-1,-1 -1,-2 0,-2z"/>
   <path class="fil2" d="M34 94l0 0c1,-1 2,-1 2,0l44 43c0,1 0,2 0,2l0 0c-1,1 -2,1 -3,0l-43 -43c-1,0 -1,-1 0,-2z"/>
   <path class="fil2" d="M31 104l0 0c1,-1 2,-1 2,0l42 41c1,1 1,2 0,3l0 0c-1,0 -2,0 -2,0l-42 -42c-1,0 -1,-1 0,-2z"/>
   <path class="fil2" d="M89 123l0 0c1,-1 2,-1 2,0l4 4c1,0 1,1 0,2l0 0c0,1 -1,1 -2,0l-4 -4c-1,-1 -1,-2 0,-2z"/>
   <path class="fil2" d="M86 133l0 0c0,-1 1,-1 2,0l7 7c1,0 1,2 0,2l0 0c0,1 -1,1 -2,0l-7 -7c-1,-1 -1,-2 0,-2z"/>
   <path class="fil2" d="M83 143l0 0c1,-1 2,-1 2,0l10 10c1,0 1,1 0,2l0 0c0,1 -1,1 -2,0l-10 -10c-1,-1 -1,-2 0,-2z"/>
   <path class="fil2" d="M77 150l0 0c1,-1 2,-1 2,0l16 16c1,1 1,2 0,2l0 0c0,1 -1,1 -2,0l-16 -16c-1,0 -1,-1 0,-2z"/>
   <path class="fil1" d="M94 1c0,-1 -2,-1 -3,-1l-60 61c0,0 0,0 0,1l0 43c0,1 1,2 2,1l60 -60c0,-1 1,-1 1,-1l0 -44z"/>
   <g>
    <path class="fil2" d="M166 101l0 0c-1,1 -2,1 -2,0l-51 -51c-1,0 -1,-2 0,-2l0 0c0,-1 1,-1 2,0l51 51c1,0 1,1 0,2z"/>
    <path class="fil2" d="M166 88l0 0c-1,1 -2,1 -2,0l-48 -47c0,-1 0,-2 0,-3l0 0c1,0 2,0 3,0l47 48c1,0 1,1 0,2z"/>
    <path class="fil2" d="M166 75l0 0c-1,0 -2,0 -2,0l-44 -43c0,-1 0,-2 0,-3l0 0c1,0 2,0 3,0l43 44c1,0 1,1 0,2z"/>
    <path class="fil2" d="M169 65l0 0c-1,0 -2,0 -2,0l-42 -42c-1,0 -1,-1 0,-2l0 0c1,-1 2,-1 2,0l42 42c1,0 1,1 0,2z"/>
    <path class="fil2" d="M111 46l0 0c-1,1 -2,1 -2,0l-4 -4c-1,-1 -1,-2 0,-2l0 0c0,-1 1,-1 2,0l4 4c1,1 1,2 0,2z"/>
    <path class="fil2" d="M114 36l0 0c0,1 -1,1 -2,0l-7 -7c-1,-1 -1,-2 0,-2l0 0c0,-1 1,-1 2,0l7 7c1,0 1,2 0,2z"/>
    <path class="fil2" d="M117 26l0 0c-1,1 -2,1 -2,0l-10 -10c-1,-1 -1,-2 0,-2l0 0c0,-1 1,-1 2,0l10 10c1,0 1,1 0,2z"/>
    <path class="fil2" d="M123 19l0 0c-1,0 -2,0 -2,0l-16 -16c-1,-1 -1,-2 0,-3l0 0c0,0 1,0 2,0l16 17c1,0 1,1 0,2z"/>
    <path class="fil1" d="M106 167c0,2 2,2 3,1l60 -60c0,0 0,-1 0,-1l0 -43c0,-2 -1,-2 -2,-1l-60 60c0,0 -1,1 -1,1l0 43z"/>
   </g>
   <path class="fil3" d="M36 98l51 -51c-5,3 -50,48 -51,51z"/>
   <path class="fil3" d="M162 73l-51 51c6,-3 50,-47 51,-51z"/>
  </g>
 </g>
</svg>
