<?xml version="1.0" encoding="UTF-8"?>
<!DOCTYPE svg PUBLIC "-//W3C//DTD SVG 1.1//EN" "http://www.w3.org/Graphics/SVG/1.1/DTD/svg11.dtd">
<!-- Creator: CorelDRAW X7 -->
<svg xmlns="http://www.w3.org/2000/svg" xml:space="preserve" width="199px" height="58px" version="1.1" style="shape-rendering:geometricPrecision; text-rendering:geometricPrecision; image-rendering:optimizeQuality; fill-rule:evenodd; clip-rule:evenodd"
viewBox="0 0 199 58"
 xmlns:xlink="http://www.w3.org/1999/xlink">
 <defs>
  <style type="text/css">
   <![CDATA[
    .fil1 {fill:#003E7E}
    .fil0 {fill:#003E7E;fill-rule:nonzero}
   ]]>
  </style>
 </defs>
 <g id="Layer_x0020_1">
  <metadata id="CorelCorpID_0Corel-Layer"/>
  <path class="fil0" d="M0 32c0,1 1,2 2,2 2,0 3,-1 3,-2l0 -9 3 -4 9 14c1,1 1,1 2,1 1,0 3,-1 3,-2 0,-1 0,-1 -1,-1l-10 -16 9 -11c0,-1 0,-1 0,-1 0,-1 -1,-3 -3,-3 0,0 -1,0 -1,1l-11 15 0 -14c0,-1 -1,-2 -3,-2 -1,0 -2,1 -2,2l0 30z"/>
  <path id="1" class="fil0" d="M54 34c6,0 11,-3 11,-10l0 -14c0,-7 -5,-10 -11,-10 -5,0 -10,3 -10,10l0 14c0,7 5,10 10,10zm6 -10c0,4 -2,6 -6,6 -3,0 -5,-2 -5,-6l0 -14c0,-4 2,-5 5,-5 4,0 6,1 6,5l0 14z"/>
  <path id="2" class="fil0" d="M89 0c-1,0 -1,1 -1,2 0,2 0,3 1,3l7 0 0 27c0,1 2,2 3,2 1,0 2,-1 2,-2l0 -27 7 0c1,0 2,-1 2,-3 0,-1 -1,-2 -2,-2l-19 0z"/>
  <path id="3" class="fil0" d="M132 34c1,0 1,0 2,-1l1 -7 12 0 2 7c0,1 0,1 1,1 2,0 3,-1 3,-2 0,0 0,-1 0,-1l-9 -29c0,-1 -2,-2 -3,-2 -1,0 -3,1 -3,2l-9 29c0,0 0,1 0,1 0,1 2,2 3,2zm4 -12l5 -15 5 15 -10 0z"/>
  <path id="4" class="fil0" d="M177 32c0,1 1,2 3,2 1,0 2,-1 2,-2l0 -9 3 -4 9 14c1,1 1,1 2,1 2,0 3,-1 3,-2 0,-1 0,-1 0,-1l-11 -16 9 -11c0,-1 0,-1 0,-1 0,-1 -1,-3 -2,-3 -1,0 -1,0 -2,1l-11 15 0 -14c0,-1 -1,-2 -2,-2 -2,0 -3,1 -3,2l0 30z"/>
  <path class="fil0" d="M30 57c0,1 1,1 1,1 0,0 1,0 1,-1l0 -7 3 0c3,0 6,-1 6,-5l0 0c0,-4 -3,-6 -6,-6l-4 0c-1,0 -1,1 -1,1l0 17zm5 -16c3,0 4,1 4,4l0 0c0,3 -1,4 -4,4l-3 0 0 -8 3 0z"/>
  <path id="1" class="fil0" d="M46 58c0,0 0,0 0,-1l1 -3 7 0 2 3c0,1 0,1 0,1 1,0 1,0 1,-1 0,0 0,0 0,0l-5 -17c0,0 -1,-1 -1,-1 -1,0 -1,0 -1,1l-5 17c0,0 0,0 0,0 0,1 0,1 1,1zm2 -6l3 -10 3 10 -6 0z"/>
  <path id="2" class="fil0" d="M72 44c0,0 0,1 1,1 0,0 1,0 1,-1 0,-3 -2,-5 -6,-5 -3,0 -5,2 -5,6l0 8c0,4 2,5 5,5 4,0 6,-2 6,-4 0,-1 -1,-1 -1,-1 -1,0 -1,0 -1,0 0,2 -1,4 -4,4 -2,0 -3,-2 -3,-4l0 -8c0,-3 1,-4 3,-4 3,0 4,2 4,3l0 0z"/>
  <path id="3" class="fil0" d="M80 57c0,1 0,1 1,1 0,0 1,0 1,-1l0 -6 2 -2 6 9c0,0 0,0 0,0 1,0 1,0 1,-1 0,0 0,0 0,0l-6 -10 5 -6c0,0 0,-1 0,-1 0,0 0,-1 0,-1 -1,0 -1,1 -1,1l-7 9 0 -9c0,0 -1,-1 -1,-1 -1,0 -1,1 -1,1l0 17z"/>
  <path id="4" class="fil0" d="M96 58c1,0 1,0 1,-1l1 -3 7 0 1 3c1,1 1,1 1,1 1,0 1,0 1,-1 0,0 0,0 0,0l-5 -17c0,0 -1,-1 -1,-1 -1,0 -1,0 -1,1l-5 17c-1,0 -1,0 -1,0 0,1 1,1 1,1zm3 -6l3 -10 3 10 -6 0z"/>
  <path id="5" class="fil0" d="M123 44c0,1 0,1 1,1 0,0 0,-1 0,-1 0,-3 -2,-5 -5,-5 -3,0 -5,2 -5,6l0 8c0,4 2,5 5,5 3,0 5,-1 5,-5l0 -4c0,0 0,-1 0,-1l-5 0c0,0 0,1 0,1 0,0 0,1 0,1l4 0 0 3c0,2 -2,4 -4,4 -2,0 -3,-2 -3,-4l0 -8c0,-3 1,-4 3,-4 2,0 4,1 4,3l0 0z"/>
  <path id="6" class="fil0" d="M131 57c0,1 1,1 1,1 1,0 1,0 1,-1l0 -17c0,0 0,-1 -1,-1 0,0 -1,1 -1,1l0 17z"/>
  <path id="7" class="fil0" d="M150 58c1,0 1,0 1,-1l0 -17c0,0 0,-1 -1,-1 0,0 -1,1 -1,1l0 14 -6 -13c-1,-1 -1,-2 -2,-2 0,0 -1,1 -1,1l0 17c0,1 1,1 1,1 1,0 1,0 1,-1l0 -14 7 14c0,0 1,1 1,1z"/>
  <path id="8" class="fil0" d="M167 44c0,1 1,1 1,1 1,0 1,-1 1,-1 0,-3 -2,-5 -5,-5 -3,0 -6,2 -6,6l0 8c0,4 3,5 6,5 3,0 5,-1 5,-5l0 -4c0,0 0,-1 -1,-1l-4 0c-1,0 -1,1 -1,1 0,0 0,1 1,1l3 0 0 3c0,2 -1,4 -3,4 -3,0 -4,-2 -4,-4l0 -8c0,-3 1,-4 4,-4 2,0 3,1 3,3l0 0z"/>
  <rect class="fil1" y="48" width="22.6628" height="1.26299" rx="9" ry="15"/>
  <rect class="fil1" x="176" y="48" width="22.6628" height="1.26299" rx="9" ry="15"/>
 </g>
</svg>
