<?xml version="1.0" encoding="UTF-8"?>
<!DOCTYPE svg PUBLIC "-//W3C//DTD SVG 1.1//EN" "http://www.w3.org/Graphics/SVG/1.1/DTD/svg11.dtd">
<!-- Creator: CorelDRAW X7 -->
<svg xmlns="http://www.w3.org/2000/svg" xml:space="preserve" width="788px" height="958px" version="1.1" style="shape-rendering:geometricPrecision; text-rendering:geometricPrecision; image-rendering:optimizeQuality; fill-rule:evenodd; clip-rule:evenodd"
viewBox="0 0 788 958"
 xmlns:xlink="http://www.w3.org/1999/xlink">
 <defs>
  <style type="text/css">
   <![CDATA[
    .fil2 {fill:#003E7E}
    .fil1 {fill:#003E7E}
    .fil0 {fill:#003E7E;fill-rule:nonzero}
   ]]>
  </style>
 </defs>
 <g id="Layer_x0020_1">
  <metadata id="CorelCorpID_0Corel-Layer"/>
  <path class="fil0" d="M0 856c0,4 5,6 10,6 5,0 9,-2 9,-6l0 -38 12 -15 37 56c2,2 4,3 7,3 5,0 11,-4 11,-9 0,-1 0,-2 -1,-3l-41 -63 35 -44c1,-1 1,-3 1,-4 0,-5 -6,-10 -11,-10 -2,0 -4,1 -5,3l-45 59 0 -56c0,-4 -4,-6 -9,-6 -5,0 -10,2 -10,6l0 121z"/>
  <path id="1" class="fil0" d="M215 863c23,0 41,-11 41,-40l0 -53c0,-30 -18,-41 -41,-41 -23,0 -40,11 -40,41l0 53c0,29 17,40 40,40zm22 -40c0,16 -8,23 -22,23 -13,0 -21,-7 -21,-23l0 -53c0,-16 8,-24 21,-24 14,0 22,8 22,24l0 53z"/>
  <path id="2" class="fil0" d="M353 729c-4,0 -6,5 -6,9 0,5 2,9 6,9l29 0 0 109c0,4 4,6 9,6 5,0 10,-2 10,-6l0 -109 28 0c4,0 6,-4 6,-9 0,-4 -2,-9 -6,-9l-76 0z"/>
  <path id="3" class="fil0" d="M522 862c3,0 6,-1 7,-4l7 -26 45 0 8 26c0,3 3,4 6,4 5,0 12,-4 12,-8 0,-1 0,-1 0,-2l-36 -117c-2,-5 -7,-7 -12,-7 -6,0 -11,2 -13,7l-36 117c0,1 0,1 0,2 0,5 7,8 12,8zm18 -45l19 -63 18 63 -37 0z"/>
  <path id="4" class="fil0" d="M702 856c0,4 5,6 9,6 5,0 10,-2 10,-6l0 -38 12 -15 37 56c1,2 4,3 7,3 5,0 11,-4 11,-9 0,-1 0,-2 -1,-3l-41 -63 34 -44c1,-1 2,-3 2,-4 0,-5 -6,-10 -11,-10 -2,0 -4,1 -6,3l-44 59 0 -56c0,-4 -5,-6 -10,-6 -4,0 -9,2 -9,6l0 121z"/>
  <path class="fil0" d="M119 955c0,2 2,3 4,3 1,0 3,-1 3,-3l0 -27 14 0c12,0 21,-6 21,-21l0 -1c0,-16 -9,-22 -21,-22l-18 0c-2,1 -3,2 -3,3l0 68zm21 -64c9,0 14,4 14,15l0 1c0,10 -5,15 -14,15l-14 0 0 -31 14 0z"/>
  <path id="1" class="fil0" d="M181 958c1,0 2,-1 2,-2l5 -16 27 0 5 16c0,1 1,2 3,2 1,0 4,-2 4,-3 0,-1 -1,-1 -1,-1l-20 -68c-1,-1 -3,-2 -4,-2 -2,0 -4,1 -4,2l-21 68c0,0 0,1 0,1 0,1 2,3 4,3zm8 -23l13 -41 12 41 -25 0z"/>
  <path id="2" class="fil0" d="M285 903c0,1 1,2 3,2 2,0 3,-1 3,-4 0,-9 -7,-17 -20,-17 -12,0 -21,6 -21,22l0 31c0,15 9,21 20,21 14,0 21,-8 21,-17 0,-3 -1,-4 -3,-4 -2,0 -3,1 -3,3 -1,5 -2,12 -14,12 -10,0 -15,-5 -15,-15l0 -31c0,-11 5,-15 15,-15 12,0 14,7 14,12l0 0z"/>
  <path id="3" class="fil0" d="M317 955c0,2 2,3 3,3 2,0 4,-1 4,-3l0 -23 8 -10 23 34c1,1 2,2 3,2 1,0 3,-2 3,-4 0,0 0,-1 0,-1l-25 -37 22 -27c0,0 0,-1 0,-1 0,-2 -2,-4 -3,-4 -1,0 -2,1 -2,1l-29 37 0 -35c0,-2 -2,-3 -4,-3 -1,0 -3,1 -3,3l0 68z"/>
  <path id="4" class="fil0" d="M382 958c1,0 2,-1 2,-2l5 -16 28 0 4 16c1,1 2,2 3,2 2,0 4,-2 4,-3 0,-1 0,-1 0,-1l-21 -68c0,-1 -2,-2 -4,-2 -2,0 -3,1 -4,2l-21 68c0,0 0,1 0,1 0,1 2,3 4,3zm9 -23l12 -41 12 41 -24 0z"/>
  <path id="5" class="fil0" d="M486 903c0,1 2,2 3,2 2,0 4,-1 4,-3 0,-10 -8,-18 -21,-18 -12,0 -21,6 -21,22l0 31c0,15 9,21 21,21 12,0 21,-6 21,-21l0 -15c0,-2 -1,-3 -3,-3l-17 0c-2,0 -3,2 -3,3 0,1 1,3 3,3l13 0 0 12c0,10 -5,15 -14,15 -9,0 -14,-5 -14,-15l0 -31c0,-11 5,-15 14,-15 9,0 13,4 14,12l0 0z"/>
  <path id="6" class="fil0" d="M520 955c0,2 2,3 4,3 1,0 3,-1 3,-3l0 -68c0,-2 -2,-3 -3,-3 -2,0 -4,1 -4,3l0 68z"/>
  <path id="7" class="fil0" d="M595 958c2,0 3,-1 3,-3l0 -68c0,-2 -1,-3 -3,-3 -2,0 -3,1 -3,3l0 55 -27 -53c-1,-2 -3,-5 -5,-5 -2,0 -4,1 -4,3l0 68c0,2 2,3 4,3 1,0 3,-1 3,-3l0 -55 28 54c1,2 2,4 4,4z"/>
  <path id="8" class="fil0" d="M662 903c0,1 2,2 3,2 2,0 4,-1 4,-3 0,-10 -8,-18 -21,-18 -12,0 -21,6 -21,22l0 31c0,15 9,21 21,21 12,0 21,-6 21,-21l0 -15c0,-2 -1,-3 -3,-3l-17 0c-2,0 -3,2 -3,3 0,1 1,3 3,3l13 0 0 12c0,10 -5,15 -14,15 -9,0 -14,-5 -14,-15l0 -31c0,-11 5,-15 14,-15 9,0 13,4 14,12l0 0z"/>
  <rect class="fil1" y="918" width="89.7402" height="5.00119" rx="34" ry="59"/>
  <rect class="fil1" x="698" y="918" width="89.7402" height="5.00119" rx="34" ry="59"/>
  <path class="fil2" d="M134 267l0 0c3,-3 7,-3 10,0l55 56c-3,3 -6,6 -9,9l-56 -56c-2,-3 -2,-7 0,-9zm69 59l141 141c2,3 2,7 0,9l0 0c-3,3 -7,3 -9,0l-141 -141 9 -9z"/>
  <path class="fil2" d="M134 318l0 0c3,-2 7,-2 10,0l30 31c-3,3 -6,7 -9,9l-31 -30c-2,-3 -2,-7 0,-10zm43 34l153 153c3,2 3,7 0,9l0 0c-2,3 -6,3 -9,0l-153 -153 9 -9z"/>
  <path class="fil2" d="M134 370l0 0c3,-3 7,-3 10,0l6 6c-4,5 -7,9 -7,11l8 -9 163 162c3,3 3,7 0,9l0 0c-3,3 -7,3 -9,0l-171 -170c-2,-2 -2,-7 0,-9z"/>
  <path class="fil2" d="M122 409l0 0c3,-2 7,-2 9,0l164 164c3,3 3,7 0,9l0 0c-2,3 -6,3 -9,0l-164 -164c-2,-2 -2,-6 0,-9z"/>
  <path class="fil2" d="M350 483l0 0c3,-3 7,-3 9,0l17 16c2,3 2,7 0,9l0 0c-3,3 -7,3 -9,0l-17 -16c-2,-3 -2,-7 0,-9z"/>
  <path class="fil2" d="M338 522l0 0c3,-2 7,-2 9,0l29 29c2,2 2,7 0,9l0 0c-3,3 -7,3 -9,0l-29 -29c-2,-2 -2,-6 0,-9z"/>
  <path class="fil2" d="M327 562l0 0c2,-3 6,-3 9,0l40 40c2,2 2,6 0,9l0 0c-3,2 -7,2 -9,0l-40 -40c-3,-3 -3,-7 0,-9z"/>
  <path class="fil2" d="M304 591l0 0c2,-3 6,-3 9,0l63 63c2,2 2,6 0,9l0 0c-3,2 -7,2 -9,0l-63 -63c-3,-3 -3,-7 0,-9z"/>
  <path class="fil1" d="M369 5c0,-4 -6,-7 -9,-3l-238 238c-1,1 -2,2 -2,3l0 171c0,5 6,7 9,4l238 -238c1,-1 2,-3 2,-4l0 -171zm-226 382l200 -201c-20,11 -197,186 -200,201z"/>
  <path class="fil2" d="M654 398l0 0c-3,2 -7,2 -10,0l-53 -54c3,-3 6,-6 8,-9l55 54c2,2 2,6 0,9zm-67 -57l-143 -143c-2,-3 -2,-7 0,-10l0 0c3,-2 7,-2 9,0l143 143 -9 10z"/>
  <path class="fil2" d="M654 346l0 0c-3,3 -7,3 -10,0l-28 -28c3,-4 6,-7 8,-10l30 29c2,3 2,7 0,9zm-41 -31l-155 -155c-3,-3 -3,-7 0,-9l0 0c2,-3 6,-3 9,0l155 155 -9 9z"/>
  <path class="fil2" d="M654 295l0 0c-3,2 -7,2 -10,0l-5 -6c0,0 0,0 0,0l0 0 -165 -165c-3,-2 -3,-6 0,-9l0 0c3,-2 7,-2 9,0l171 171c2,2 2,6 0,9z"/>
  <path class="fil2" d="M666 255l0 0c-3,3 -7,3 -9,0l-164 -163c-3,-3 -3,-7 0,-9l0 0c2,-3 6,-3 9,0l164 163c2,3 2,7 0,9z"/>
  <path class="fil2" d="M438 182l0 0c-3,3 -7,3 -9,0l-17 -16c-2,-3 -2,-7 0,-9l0 0c3,-3 7,-3 9,0l17 16c2,2 2,7 0,9z"/>
  <path class="fil2" d="M450 142l0 0c-3,3 -7,3 -9,0l-29 -28c-2,-3 -2,-7 0,-9l0 0c3,-3 7,-3 9,0l29 28c2,3 2,7 0,9z"/>
  <path class="fil2" d="M461 103l0 0c-2,2 -6,2 -9,0l-40 -40c-2,-3 -2,-7 0,-9l0 0c3,-3 7,-3 9,0l40 40c3,2 3,6 0,9z"/>
  <path class="fil2" d="M484 74l0 0c-2,3 -6,3 -9,0l-63 -63c-2,-3 -2,-7 0,-9l0 0c3,-3 7,-3 9,0l63 63c3,3 3,7 0,9z"/>
  <path class="fil1" d="M419 660c0,4 6,7 9,3l238 -238c1,-1 2,-2 2,-4l0 -170c0,-5 -6,-7 -9,-4l-238 238c-1,1 -2,2 -2,4l0 171zm220 -371l-200 200c20,-11 197,-186 200,-200z"/>
 </g>
</svg>
