<?xml version="1.0" encoding="utf-8"?>
<!-- Generator: Adobe Illustrator 16.0.0, SVG Export Plug-In . SVG Version: 6.00 Build 0)  -->
<!DOCTYPE svg PUBLIC "-//W3C//DTD SVG 1.1//EN" "http://www.w3.org/Graphics/SVG/1.1/DTD/svg11.dtd">
<svg version="1.1" xmlns="http://www.w3.org/2000/svg" xmlns:xlink="http://www.w3.org/1999/xlink" x="0px" y="0px" width="1280px"
	 height="842px" viewBox="0 0 1280 842" enable-background="new 0 0 1280 842" xml:space="preserve">
<g id="Layer_1" display="none">
	<g display="inline" opacity="0.5">
		<defs>
			<rect id="SVGID_1_" x="1022.061" y="519.83" opacity="0.5" width="257.939" height="322.117"/>
		</defs>
		<clipPath id="SVGID_2_">
			<use xlink:href="#SVGID_1_"  overflow="visible"/>
		</clipPath>
		<g clip-path="url(#SVGID_2_)">
			
				<linearGradient id="SVGID_3_" gradientUnits="userSpaceOnUse" x1="1186.2568" y1="1201.0225" x2="1186.2568" y2="976.2588" gradientTransform="matrix(-0.1349 -0.9909 0.9909 -0.1349 623.9744 2115.9077)">
				<stop  offset="0.0054" style="stop-color:#236A03"/>
				<stop  offset="0.274" style="stop-color:#1B5102"/>
				<stop  offset="0.8405" style="stop-color:#061301"/>
				<stop  offset="1" style="stop-color:#000000"/>
			</linearGradient>
			<path fill="url(#SVGID_3_)" d="M1419.857,724.931c0,0,11.416,83.86,45.341,111.47c30.874,25.119,91.699,38.177,120.863,36.423
				c29.173-1.756,48.492-14.628,52.62-19.128c10.127-11.072,15.419-23.663,16.305-35.393c0.89-11.739,0.496-28.83,0.496-28.83
				l-131.811,17.945c0,0-25.39,2.91-51.058-15.71C1451.303,776.25,1429.166,765.021,1419.857,724.931z"/>
			<path fill="#EEF10D" d="M1034.931,755.79c14.177,104.139,110.105,177.08,214.249,162.9c1.542-0.211,3.055-0.497,4.582-0.745
				l0.853,0.005l362.996-49.242c0,0-114.64,6.778-153.41-39.362c-29.67-35.319-34.049-50.105-43.438-106.881
				c-20.613-139.217-118.787-195.103-222.932-180.925C1093.686,555.72,1020.749,651.637,1034.931,755.79z"/>
			<path fill="#45AF05" d="M1219.625,589.839c-88.521,12.052-150.34,94.771-138.089,184.758
				c11.432,83.96,83.333,144.54,164.827,142.479c-1.107,1.568-1.704,2.411-1.704,2.411l302.102-41.132
				c0,0-90.935-3.91-115.724-51.958c-24.791-48.051-26.445-84.593-30.529-106.983c-0.064-0.334-0.343-0.406-0.57-0.53
				C1382.346,635.411,1304.122,578.335,1219.625,589.839z"/>
			<path fill="#235D03" d="M1129.566,791.306c9.225,67.74,72.854,119.805,133.467,125.411l-13.854,1.974l15.916-2.168
				c4.356-0.738,9.388-1.277,13.851-1.885c4.157-0.567,8.206-0.708,12.205-1.661l221.122-30.106c0,0-71.217,6.037-96.915-45.777
				c-18.169-36.604-20.782-50.078-24.586-73.433c-0.003-0.014-0.007-0.014-0.008-0.024c-0.219-2.579-0.494-5.169-0.85-7.778
				c-10.604-77.892-77.485-133.103-149.376-123.314S1118.963,713.412,1129.566,791.306z"/>
			<path fill="#07BEF3" d="M1199.082,820.497c7.63,56.036,47.383,92.131,93.732,92.252l1.418-0.012l179.243-24.404
				c-50.229,2.688-67.396-22.925-71.803-28.965c-4.563-6.247-14.546-28.479-16.478-38.854c-5.174-27.702-8.769-43.212-9.898-48.177
				c-7.765-34.284-49.074-80.445-99.605-73.565C1225.17,705.65,1190.866,760.151,1199.082,820.497z"/>
		</g>
	</g>
	<g display="inline" opacity="0.5">
		<defs>
			<rect id="SVGID_4_" opacity="0.5" width="552.812" height="617.119"/>
		</defs>
		<clipPath id="SVGID_5_">
			<use xlink:href="#SVGID_4_"  overflow="visible"/>
		</clipPath>
		<g clip-path="url(#SVGID_5_)">
			
				<linearGradient id="SVGID_6_" gradientUnits="userSpaceOnUse" x1="-341.9219" y1="1138.1895" x2="-341.9219" y2="619.2559" gradientTransform="matrix(0.9656 0.2599 -0.2599 0.9656 184.7254 -16.4137)">
				<stop  offset="0.0054" style="stop-color:#236A03"/>
				<stop  offset="0.274" style="stop-color:#1B5102"/>
				<stop  offset="0.8405" style="stop-color:#061301"/>
				<stop  offset="1" style="stop-color:#000000"/>
			</linearGradient>
			<path fill="url(#SVGID_6_)" d="M-117.679,543.494c0,0-188.688-50.775-277.813-3.297
				c-81.096,43.215-163.341,160.969-185.716,224.605c-22.379,63.658-12.283,116.295-6.397,129.109
				c14.496,31.463,36.552,53.996,60.724,66.381c24.184,12.406,60.909,26.869,60.909,26.869l79.811-296.58
				c0,0,16.537-56.639,79.144-94.592C-255.044,564.475-211.326,527.414-117.679,543.494z"/>
			<path fill="#EEF10D" d="M161.252-303.312c-234.318-63.055-475.422,75.793-538.48,310.12c-0.933,3.468-1.676,6.945-2.52,10.418
				l-0.771,1.81l-220.172,816.591c0,0,88.203-250.041,221.107-291.242c101.723-31.52,137.111-27.602,266.344,3.242
				c314.728,80.764,521.553-78.135,584.611-312.458C534.43,0.841,395.599-240.249,161.252-303.312z"/>
			<path fill="#45AF05" d="M349.072,238.313C402.67,39.138,281.979-166.476,79.504-220.963
				C-109.409-271.8-302.703-173.015-371.271,2.26c-2.342-3.762-3.603-5.783-3.603-5.783l-182.918,679.738
				c0,0,89.725-190.023,214.175-199.766c124.449-9.74,203.704,19.451,255.005,30.805c0.766,0.168,1.171-0.365,1.637-0.736
				C106.415,543.807,297.91,428.436,349.072,238.313z"/>
			<path fill="#235D03" d="M0.947-133.703c-152.42-41.016-320.186,47.787-386.382,171.764l8.207-31.253l-9.637,35.814
				c-2.328,9.933-5.683,21.119-8.386,31.164c-2.518,9.355-5.842,18.097-7.39,27.46l-133.887,497.531
				c0,0,50.904-156.963,184.18-165.271c94.167-5.893,125.18,0.611,178.289,13.42c0.028,0.008,0.031,0,0.059,0.008
				c5.685,1.844,11.441,3.574,17.31,5.154C18.568,499.25,195.939,406.346,239.467,244.59
				C282.997,82.834,176.207-86.54,0.947-133.703z"/>
			<path fill="#07BEF3" d="M-123.411-11.897c-126.084-33.93-238.481,18.354-280.238,116.885l-1.241,3.03l-108.529,403.304
				c39.242-109.304,109.118-122.906,125.914-126.88c17.382-4.117,73.631-5.459,97.442-0.287
				c63.587,13.798,99.809,20.028,111.389,22.071c79.914,14.167,215.129-32.42,245.726-146.116
				C97.642,146.434,12.368,24.641-123.411-11.897z"/>
		</g>
	</g>
</g>
<g id="Layer_2" display="none">
	<g display="inline" opacity="0.5">
		<defs>
			<rect id="SVGID_7_" y="5.026" opacity="0.5" width="257.939" height="322.117"/>
		</defs>
		<clipPath id="SVGID_8_">
			<use xlink:href="#SVGID_7_"  overflow="visible"/>
		</clipPath>
		<g clip-path="url(#SVGID_8_)">
			
				<linearGradient id="SVGID_9_" gradientUnits="userSpaceOnUse" x1="1186.2305" y1="1201.0195" x2="1186.2305" y2="976.2549" gradientTransform="matrix(0.1349 0.9909 -0.9909 0.1349 656.0256 -1268.9077)">
				<stop  offset="0.0054" style="stop-color:#236A03"/>
				<stop  offset="0.274" style="stop-color:#1B5102"/>
				<stop  offset="0.8405" style="stop-color:#061301"/>
				<stop  offset="1" style="stop-color:#000000"/>
			</linearGradient>
			<path fill="url(#SVGID_9_)" d="M-139.857,122.043c0,0-11.416-83.86-45.341-111.47c-30.874-25.119-91.699-38.177-120.863-36.423
				c-29.173,1.756-48.492,14.628-52.62,19.128c-10.127,11.072-15.419,23.663-16.305,35.393c-0.89,11.739-0.496,28.83-0.496,28.83
				l131.811-17.945c0,0,25.39-2.91,51.058,15.71C-171.303,70.724-149.166,81.953-139.857,122.043z"/>
			<path fill="#EEF10D" d="M245.069,91.184C230.893-12.955,134.964-85.896,30.82-71.717c-1.542,0.211-3.055,0.497-4.582,0.745
				l-0.853-0.005L-337.61-21.734c0,0,114.64-6.778,153.41,39.362c29.67,35.319,34.049,50.105,43.438,106.881
				C-120.148,263.726-21.975,319.611,82.17,305.434C186.314,291.254,259.251,195.337,245.069,91.184z"/>
			<path fill="#45AF05" d="M60.375,257.135c88.521-12.052,150.34-94.771,138.089-184.758
				c-11.432-83.96-83.333-144.54-164.827-142.479c1.107-1.568,1.704-2.411,1.704-2.411l-302.102,41.132
				c0,0,90.935,3.91,115.724,51.958c24.791,48.051,26.445,84.593,30.529,106.983c0.064,0.334,0.343,0.406,0.57,0.53
				C-102.346,211.563-24.122,268.639,60.375,257.135z"/>
			<path fill="#235D03" d="M150.434,55.668C141.209-12.072,77.579-64.137,16.967-69.743l13.854-1.974l-15.916,2.168
				c-4.356,0.738-9.388,1.277-13.851,1.885c-4.157,0.567-8.206,0.708-12.205,1.661l-221.122,30.106c0,0,71.217-6.037,96.915,45.777
				c18.169,36.604,20.782,50.078,24.586,73.433c0.003,0.014,0.007,0.014,0.008,0.024c0.219,2.579,0.494,5.169,0.85,7.778
				c10.604,77.892,77.485,133.103,149.376,123.314S161.037,133.562,150.434,55.668z"/>
			<path fill="#07BEF3" d="M80.918,26.477c-7.63-56.036-47.383-92.131-93.732-92.252l-1.418,0.012l-179.243,24.404
				c50.229-2.688,67.396,22.925,71.803,28.965c4.563,6.247,14.546,28.479,16.478,38.854c5.174,27.702,8.769,43.212,9.898,48.177
				c7.765,34.284,49.074,80.445,99.605,73.565C54.83,141.323,89.134,86.822,80.918,26.477z"/>
		</g>
	</g>
	<g display="inline" opacity="0.5">
		<defs>
			<rect id="SVGID_10_" x="727.188" y="224.854" opacity="0.5" width="552.812" height="617.119"/>
		</defs>
		<clipPath id="SVGID_11_">
			<use xlink:href="#SVGID_10_"  overflow="visible"/>
		</clipPath>
		<g clip-path="url(#SVGID_11_)">
			
				<linearGradient id="SVGID_12_" gradientUnits="userSpaceOnUse" x1="-340.6162" y1="1143.0439" x2="-340.6162" y2="624.1104" gradientTransform="matrix(-0.9656 -0.2599 0.2599 -0.9656 1095.2747 863.4147)">
				<stop  offset="0.0054" style="stop-color:#236A03"/>
				<stop  offset="0.274" style="stop-color:#1B5102"/>
				<stop  offset="0.8405" style="stop-color:#061301"/>
				<stop  offset="1" style="stop-color:#000000"/>
			</linearGradient>
			<path fill="url(#SVGID_12_)" d="M1397.679,298.479c0,0,188.688,50.775,277.813,3.297
				c81.096-43.215,163.342-160.969,185.716-224.605c22.38-63.658,12.283-116.295,6.397-129.109
				c-14.495-31.463-36.552-53.996-60.724-66.381c-24.184-12.406-60.908-26.869-60.908-26.869l-79.812,296.58
				c0,0-16.536,56.639-79.144,94.592C1535.044,277.499,1491.325,314.56,1397.679,298.479z"/>
			<path fill="#EEF10D" d="M1118.748,1145.285c234.318,63.056,475.422-75.793,538.48-310.119c0.933-3.468,1.676-6.945,2.52-10.418
				l0.771-1.811L1880.69,6.347c0,0-88.202,250.041-221.107,291.242c-101.723,31.52-137.111,27.602-266.344-3.242
				c-314.728-80.764-521.553,78.135-584.611,312.458C745.57,841.133,884.401,1082.223,1118.748,1145.285z"/>
			<path fill="#45AF05" d="M930.928,603.66c-53.599,199.176,67.094,404.789,269.567,459.276
				c188.913,50.837,382.207-47.948,450.776-223.223c2.342,3.762,3.603,5.782,3.603,5.782l182.919-679.737
				c0,0-89.725,190.023-214.175,199.766c-124.449,9.74-203.704-19.451-255.006-30.805c-0.766-0.168-1.171,0.365-1.637,0.736
				C1173.585,298.167,982.09,413.538,930.928,603.66z"/>
			<path fill="#235D03" d="M1279.053,975.677c152.42,41.017,320.187-47.786,386.382-171.764l-8.206,31.253l9.637-35.814
				c2.328-9.933,5.684-21.119,8.387-31.164c2.518-9.354,5.842-18.097,7.39-27.46l133.888-497.531
				c0,0-50.904,156.963-184.181,165.271c-94.167,5.893-125.18-0.611-178.289-13.42c-0.028-0.008-0.03,0-0.059-0.008
				c-5.686-1.844-11.441-3.574-17.31-5.154c-175.26-47.162-352.631,45.742-396.159,207.497
				C997.003,759.139,1103.793,928.514,1279.053,975.677z"/>
			<path fill="#07BEF3" d="M1403.411,853.871c126.084,33.93,238.48-18.354,280.237-116.885l1.241-3.031l108.529-403.304
				c-39.242,109.304-109.118,122.906-125.914,126.88c-17.382,4.117-73.631,5.459-97.442,0.287
				c-63.587-13.798-99.809-20.028-111.389-22.071c-79.914-14.167-215.13,32.42-245.726,146.116
				C1182.357,695.54,1267.632,817.332,1403.411,853.871z"/>
		</g>
	</g>
</g>
<g id="Layer_3">
	<g opacity="0.5">
		<defs>
			<rect id="SVGID_13_" x="1022.061" y="2.526" opacity="0.5" width="257.939" height="322.117"/>
		</defs>
		<clipPath id="SVGID_14_">
			<use xlink:href="#SVGID_13_"  overflow="visible"/>
		</clipPath>
		<g clip-path="url(#SVGID_14_)">
			
				<linearGradient id="SVGID_15_" gradientUnits="userSpaceOnUse" x1="1188.707" y1="1201.3564" x2="1188.707" y2="976.5928" gradientTransform="matrix(-0.1349 0.9909 0.9909 0.1349 623.9744 -1273.9077)">
				<stop  offset="0.0054" style="stop-color:#236A03"/>
				<stop  offset="0.274" style="stop-color:#1B5102"/>
				<stop  offset="0.8405" style="stop-color:#061301"/>
				<stop  offset="1" style="stop-color:#000000"/>
			</linearGradient>
			<path fill="url(#SVGID_15_)" d="M1419.857,119.543c0,0,11.416-83.86,45.341-111.47c30.874-25.119,91.699-38.177,120.863-36.423
				c29.173,1.756,48.492,14.628,52.62,19.128c10.127,11.072,15.419,23.663,16.305,35.393c0.89,11.739,0.496,28.83,0.496,28.83
				l-131.811-17.945c0,0-25.39-2.91-51.058,15.71C1451.303,68.224,1429.166,79.453,1419.857,119.543z"/>
			<path fill="#EEF10D" d="M1034.931,88.684c14.177-104.139,110.105-177.08,214.249-162.9c1.542,0.211,3.055,0.497,4.582,0.745
				l0.853-0.005l362.996,49.242c0,0-114.64-6.778-153.41,39.362c-29.67,35.319-34.049,50.105-43.438,106.881
				c-20.613,139.217-118.787,195.103-222.932,180.925C1093.686,288.754,1020.749,192.837,1034.931,88.684z"/>
			<path fill="#45AF05" d="M1219.625,254.635c-88.521-12.052-150.34-94.771-138.089-184.758
				c11.432-83.96,83.333-144.54,164.827-142.479c-1.107-1.568-1.704-2.411-1.704-2.411l302.102,41.132
				c0,0-90.935,3.91-115.724,51.958c-24.791,48.051-26.445,84.593-30.529,106.983c-0.064,0.334-0.343,0.406-0.57,0.53
				C1382.346,209.063,1304.122,266.139,1219.625,254.635z"/>
			<path fill="#235D03" d="M1129.566,53.168c9.225-67.74,72.854-119.805,133.467-125.411l-13.854-1.974l15.916,2.168
				c4.356,0.738,9.388,1.277,13.851,1.885c4.157,0.567,8.206,0.708,12.205,1.661l221.122,30.106c0,0-71.217-6.037-96.915,45.777
				c-18.169,36.604-20.782,50.078-24.586,73.433c-0.003,0.014-0.007,0.014-0.008,0.024c-0.219,2.579-0.494,5.169-0.85,7.778
				c-10.604,77.892-77.485,133.103-149.376,123.314S1118.963,131.062,1129.566,53.168z"/>
			<path fill="#07BEF3" d="M1199.082,23.977c7.63-56.036,47.383-92.131,93.732-92.252l1.418,0.012l179.243,24.404
				c-50.229-2.688-67.396,22.925-71.803,28.965c-4.563,6.247-14.546,28.479-16.478,38.854c-5.174,27.702-8.769,43.212-9.898,48.177
				c-7.765,34.284-49.074,80.445-99.605,73.565C1225.17,138.823,1190.866,84.322,1199.082,23.977z"/>
		</g>
	</g>
	<g opacity="0.5">
		<defs>
			<rect id="SVGID_16_" y="222.354" opacity="0.5" width="552.812" height="617.119"/>
		</defs>
		<clipPath id="SVGID_17_">
			<use xlink:href="#SVGID_16_"  overflow="visible"/>
		</clipPath>
		<g clip-path="url(#SVGID_17_)">
			
				<linearGradient id="SVGID_18_" gradientUnits="userSpaceOnUse" x1="-341.2651" y1="1140.6289" x2="-341.2652" y2="621.6953" gradientTransform="matrix(0.9656 -0.2599 -0.2599 -0.9656 184.7254 858.4147)">
				<stop  offset="0.0054" style="stop-color:#236A03"/>
				<stop  offset="0.274" style="stop-color:#1B5102"/>
				<stop  offset="0.8405" style="stop-color:#061301"/>
				<stop  offset="1" style="stop-color:#000000"/>
			</linearGradient>
			<path fill="url(#SVGID_18_)" d="M-117.679,295.979c0,0-188.688,50.775-277.813,3.297
				c-81.096-43.215-163.342-160.969-185.716-224.605c-22.38-63.658-12.283-116.295-6.397-129.109
				c14.495-31.463,36.552-53.996,60.724-66.381c24.184-12.406,60.908-26.869,60.908-26.869l79.812,296.58
				c0,0,16.536,56.639,79.144,94.592C-255.044,274.999-211.325,312.06-117.679,295.979z"/>
			<path fill="#EEF10D" d="M161.252,1142.785c-234.318,63.056-475.422-75.793-538.48-310.119c-0.933-3.468-1.676-6.945-2.52-10.418
				l-0.771-1.811L-600.69,3.847c0,0,88.202,250.041,221.107,291.242c101.723,31.52,137.111,27.602,266.344-3.242
				c314.728-80.764,521.553,78.135,584.611,312.458C534.43,838.633,395.599,1079.723,161.252,1142.785z"/>
			<path fill="#45AF05" d="M349.072,601.16c53.599,199.176-67.094,404.789-269.567,459.276
				c-188.913,50.837-382.207-47.948-450.776-223.223c-2.342,3.762-3.603,5.782-3.603,5.782l-182.919-679.737
				c0,0,89.725,190.023,214.175,199.766c124.449,9.74,203.704-19.451,255.006-30.805c0.766-0.168,1.171,0.365,1.637,0.736
				C106.415,295.667,297.91,411.038,349.072,601.16z"/>
			<path fill="#235D03" d="M0.947,973.177c-152.42,41.017-320.187-47.786-386.382-171.764l8.206,31.253l-9.637-35.814
				c-2.328-9.933-5.684-21.119-8.387-31.164c-2.518-9.354-5.842-18.097-7.39-27.46l-133.888-497.531
				c0,0,50.904,156.963,184.181,165.271c94.167,5.893,125.18-0.611,178.289-13.42c0.028-0.008,0.03,0,0.059-0.008
				c5.686-1.844,11.441-3.574,17.31-5.154c175.26-47.162,352.631,45.742,396.159,207.497
				C282.997,756.639,176.207,926.014,0.947,973.177z"/>
			<path fill="#07BEF3" d="M-123.411,851.371c-126.084,33.93-238.48-18.354-280.237-116.885l-1.241-3.031l-108.529-403.304
				c39.242,109.304,109.118,122.906,125.914,126.88c17.382,4.117,73.631,5.459,97.442,0.287
				c63.587-13.798,99.809-20.028,111.389-22.071c79.914-14.167,215.13,32.42,245.726,146.116
				C97.643,693.04,12.368,814.832-123.411,851.371z"/>
		</g>
	</g>
</g>
</svg>
